<svg xmlns="http://www.w3.org/2000/svg" xmlns:xlink="http://www.w3.org/1999/xlink" xmlns:svgjs="http://svgjs.dev/svgjs" id="Layer_1" viewBox="0 0 66 66" width="300" height="300"><g width="100%" height="100%" transform="matrix(1,0,0,1,0,0)"><g><path d="m14.0725 13.5482h21.6274c1.5777 0 2.8614-1.2837 2.8614-2.8619v-.4616h4.107c2.077 0 3.7661 1.694 3.7661 3.7759v14.4454c0 .5525.4474 1.0004 1.0004 1.0004s1.0004-.4479 1.0004-1.0004v-14.4454c0-3.1853-2.5869-5.7766-5.7668-5.7766h-4.107v-1.0366c0-1.5782-1.2837-2.8619-2.8614-2.8619h-2.1981l-.2569-.785c-.4964-1.5196-1.9032-2.5405-3.5014-2.5405h-9.7146c-1.5992 0-3.007 1.0214-3.5013 2.5405l-.2569.785h-2.1981c-1.5787 0-2.8624 1.2837-2.8624 2.8619v3.4989c-.0002 1.5783 1.2835 2.8619 2.8622 2.8619zm-.8616-6.3608c0-.4748.3869-.8612.8617-.8612h2.924c.4328 0 .8167-.2784.9506-.6897l.4826-1.4757c.2257-.6936.8685-1.1601 1.5992-1.1601h9.7146c.7298 0 1.3726.4665 1.6002 1.1611l.4816 1.4747c.1338.4113.5178.6897.9506.6897h2.924c.4748 0 .8607.3864.8607.8612v3.4989c0 .4748-.3859.8612-.8607.8612h-21.6275c-.4748 0-.8617-.3864-.8617-.8612v-3.4989z" fill="#ecb414" fill-opacity="1" data-original-color="#000000ff" stroke="none" stroke-opacity="1"></path><path d="m19.5375 9.323h10.6975c.5529 0 1.0004-.4479 1.0004-1.0004s-.4474-1.0004-1.0004-1.0004h-10.6975c-.5529 0-1.0004.4479-1.0004 1.0004s.4475 1.0004 1.0004 1.0004z" fill="#ecb414" fill-opacity="1" data-original-color="#000000ff" stroke="none" stroke-opacity="1"></path><path d="m41.2773 19.9061h-12.8204c-.5529 0-1.0004.4479-1.0004 1.0004s.4474 1.0004 1.0004 1.0004h12.8203c.5529 0 1.0004-.4479 1.0004-1.0004 0-.5524-.4474-1.0004-1.0003-1.0004z" fill="#ecb414" fill-opacity="1" data-original-color="#000000ff" stroke="none" stroke-opacity="1"></path><path d="m41.2773 28.6644h-12.8204c-.5529 0-1.0004.4479-1.0004 1.0004s.4474 1.0004 1.0004 1.0004h12.8203c.5529 0 1.0004-.4479 1.0004-1.0004s-.4474-1.0004-1.0003-1.0004z" fill="#ecb414" fill-opacity="1" data-original-color="#000000ff" stroke="none" stroke-opacity="1"></path><path d="m41.2773 37.4226h-32.7733c-.5529 0-1.0004.4479-1.0004 1.0004s.4474 1.0004 1.0004 1.0004h32.7732c.5529 0 1.0004-.4479 1.0004-1.0004s-.4474-1.0004-1.0003-1.0004z" fill="#ecb414" fill-opacity="1" data-original-color="#000000ff" stroke="none" stroke-opacity="1"></path><path d="m7.5281 31.159c-.0664.2965.0059.6067.1954.8436s.4767.3747.7806.3747h13.5433c.3038 0 .591-.1377.7806-.3747.1895-.2369.2618-.5471.1954-.8436-.6214-2.7897-2.3824-4.983-4.6491-6.0432.7876-.7939 1.2757-1.8872 1.2757-3.0931 0-2.4121-1.9617-4.3747-4.3737-4.3747s-4.3747 1.9627-4.3747 4.3747c0 1.2059.4883 2.2992 1.2761 3.0931-2.2673 1.0602-4.0283 3.2535-4.6496 6.0432zm13.1632-.7826h-10.8313c.9711-2.3818 3.0646-3.9581 5.4161-3.9581s4.4441 1.5764 5.4152 3.9581zm-5.4152-10.7277c1.3081 0 2.373 1.0649 2.373 2.374 0 1.3164-1.0649 2.3871-2.373 2.3871-1.3091 0-2.374-1.0707-2.374-2.3871.0001-1.3091 1.0649-2.374 2.374-2.374z" fill="#ecb414" fill-opacity="1" data-original-color="#000000ff" stroke="none" stroke-opacity="1"></path><path d="m62.0674 22.9395c-2.7608-1.9597-6.6002-1.3047-8.5599 1.4551l-13.1447 18.5296c-.7072.9968-1.2284 2.1008-1.5911 3.2571h-30.2677c-.5529 0-1.0004.4479-1.0004 1.0004s.4474 1.0004 1.0004 1.0004h29.8335c-.0289.2248-.0777.4457-.0936.6726l-.4209 6.0848h-29.319c-.5529 0-1.0004.4479-1.0004 1.0004s.4474 1.0004 1.0004 1.0004h32.7732c.5529 0 1.0004-.4479 1.0004-1.0004 0-.1919-.0683-.361-.162-.5133l3.3575-1.4391c.3326-.1425.6451-.3207.9613-.4925v5.7386c0 2.0765-1.6891 3.7656-3.7661 3.7656h-35.5545c-2.077 0-3.7661-1.6891-3.7661-3.7656v-45.233c0-2.0818 1.6891-3.7759 3.7661-3.7759h1.8689c.5529 0 1.0004-.4479 1.0004-1.0004s-.4474-1.0004-1.0004-1.0004h-1.8689c-3.1799 0-5.7668 2.5913-5.7668 5.7766v45.2331c0 3.1795 2.5869 5.7664 5.7668 5.7664h35.5546c3.1799 0 5.7668-2.5869 5.7668-5.7664v-7.1054c.7263-.62 1.3882-1.317 1.9461-2.1036l13.1417-18.5252c1.9588-2.7608 1.3062-6.6006-1.4556-8.5599zm-17.3816 29.2094-4.8065 2.0599.3615-5.2159c.0392-.5637.1447-1.115.28-1.6583l5.6398 4.0028c-.469.3072-.9553.5888-1.4748.8115zm4.064-3.282c-.2946.4153-.6281.7964-.9815 1.1574l-6.541-4.6353c.2237-.4523.4729-.8925.767-1.3072l11.4423-16.1297 6.754 4.7874zm13.1418-18.5251-.5483.7729-6.7513-4.7909-.0001-.0001.5471-.7713c.806-1.1362 2.0848-1.7429 3.3821-1.7429.8284 0 1.6637.2472 2.3886.7615 1.8621 1.3208 2.3017 3.9097.9819 5.7708z" fill="#ecb414" fill-opacity="1" data-original-color="#000000ff" stroke="none" stroke-opacity="1"></path></g></g></svg>