<svg xmlns="http://www.w3.org/2000/svg" xmlns:xlink="http://www.w3.org/1999/xlink" version="1.1" id="Capa_1" x="0px" y="0px" style="enable-background:new 0 0 595.28 841.89;" xml:space="preserve" viewBox="0.38 101.43 587.59 217.14">
<style type="text/css">
	.st0{fill:#47110D;}
	.st1{fill-rule:evenodd;clip-rule:evenodd;fill:#EFB916;}
	.st2{fill-rule:evenodd;clip-rule:evenodd;fill:#47110D;}
</style>
<path class="st0" d="M382.77,177.46c0-5.68-3.08-8.95-9.23-9.82c-3.71-0.55-6.04-1.22-6.98-2.01c-0.95-0.87-1.42-1.93-1.42-3.2  c0-2.92,2.25-4.38,6.75-4.38c1.18,0,3.55,0.43,7.1,1.3c3.63,0.79,7.49,1.18,11.6,1.18c1.11,0,2.49-0.16,4.14-0.47  c1.66-0.32,2.68-0.47,3.08-0.47c2.13,0,3.19,2.41,3.19,7.22c0,36.37,0.32,55.74,0.95,58.1c0.63,2.29,3.83,4.14,9.59,5.56  c3,0.79,4.85,1.5,5.56,2.13c0.71,0.63,1.07,1.38,1.07,2.25c0,1.03-0.67,1.97-2.01,2.84c-1.26,0.87-2.92,1.3-4.97,1.3  c-0.87,0-3-0.28-6.39-0.83c-3.39-0.55-5.8-0.83-7.22-0.83c-1.5,0-3.31,0.28-5.44,0.83c-2.13,0.55-3.55,0.83-4.26,0.83  c-1.74,0-2.92-0.47-3.55-1.42c-0.63-0.95-1.06-3.27-1.3-6.98c-0.16-3.71-0.24-10.85-0.24-21.42V177.46z"/>
<path class="st0" d="M343.6,217.93c0,3.87,1.46,7.06,4.38,9.59c3,2.52,6.55,3.79,10.65,3.79c2.52,0,5.48-0.99,8.88-2.96  c3.47-2.05,6-3.08,7.57-3.08s2.37,0.95,2.37,2.84c0,2.21-2.96,5.05-8.88,8.52c-5.84,3.39-12.46,5.09-19.88,5.09  c-5.76,0-10.81-1.78-15.15-5.33c-4.26-3.55-6.75-7.5-7.46-11.83c-0.63-4.34-0.95-20.59-0.95-48.76c0-3.79-3.87-6.55-11.6-8.28  c-3.39-0.71-5.09-2.01-5.09-3.91c0-1.26,0.51-2.25,1.54-2.96c1.11-0.71,2.45-1.07,4.02-1.07c0.47,0,2.76,0.32,6.86,0.95  c4.18,0.63,7.69,0.95,10.53,0.95c1.02,0,2.52-0.28,4.5-0.83c2.05-0.63,3.31-0.95,3.79-0.95c2.6,0,3.91,5.36,3.91,16.09V217.93z"/>
<path class="st0" d="M377.92,101.43c3.87,0,6.94,0.63,9.23,1.89c2.29,1.26,3.43,2.96,3.43,5.09c0,5.05-3,7.57-8.99,7.57  c-1.66,0-3.59,0.75-5.8,2.25c-2.21,1.42-5.96,5.05-11.24,10.89c-5.29,5.76-8.95,8.64-11.01,8.64c-1.81,0-2.72-0.79-2.72-2.37  c0-3.47,3.2-9.98,9.59-19.53C366.87,106.24,372.71,101.43,377.92,101.43z"/>
<path class="st0" d="M261.43,180.65l0.47,3.31c0.4,0,2.25-3.75,5.56-11.24c3.31-7.49,6.59-12.82,9.82-15.98  c3.24-3.16,6.59-4.73,10.06-4.73c2.68,0,4.69,0.47,6.04,1.42c1.42,0.95,2.13,2.01,2.13,3.2c0,2.05-0.47,3.71-1.42,4.97  c-0.95,1.18-2.6,2.68-4.97,4.5c-10.02,7.65-17.28,16.96-21.77,27.93c-4.42,10.97-6.63,20.08-6.63,27.34c0,3.39,0.43,5.72,1.3,6.98  c0.95,1.18,3.15,2.21,6.63,3.08c3.47,0.79,5.72,1.66,6.74,2.6c1.03,0.95,1.54,2.05,1.54,3.31c0,2.29-1.38,3.43-4.14,3.43  c-2.21,0-5.29-0.4-9.23-1.18c-3.87-0.71-8.05-1.07-12.54-1.07c-3,0-6.04,0.36-9.11,1.07c-3.08,0.79-5.05,1.18-5.92,1.18  c-2.21,0-3.98-0.43-5.32-1.3c-1.34-0.79-2.01-1.82-2.01-3.08c0-0.95,0.35-1.78,1.07-2.49c0.79-0.79,2.92-1.78,6.39-2.96  c3.47-1.18,5.6-2.37,6.39-3.55c0.79-1.18,1.18-4.89,1.18-11.12v-36.09c0-2.29-0.55-4.34-1.66-6.15c-1.02-1.81-3.16-3.2-6.39-4.14  c-3.16-1.03-5.05-1.89-5.68-2.6c-0.55-0.71-0.83-1.5-0.83-2.37c0-2.6,1.85-3.91,5.56-3.91c1.03,0,2.72,0.2,5.09,0.59  c2.45,0.39,4.14,0.59,5.09,0.59c0.79,0,2.05-0.16,3.79-0.47c1.82-0.32,3.95-0.47,6.39-0.47c4.26,0,6.39,4.54,6.39,13.61V180.65z"/>
<path class="st0" d="M20.5,252.84c0.47-4.5,0.71-16.96,0.71-37.4c0-9.86-0.24-24.26-0.71-43.19c-0.16-1.97-0.99-3.67-2.49-5.09  c-1.42-1.5-4.46-2.64-9.11-3.43c-3.55-0.55-5.88-1.22-6.98-2.01c-1.03-0.79-1.54-1.78-1.54-2.96c0-3.08,2.45-4.62,7.34-4.62  c0.95,0,3.27,0.39,6.98,1.18c3.71,0.71,6.04,1.07,6.98,1.07c1.03,0,3.16-0.43,6.39-1.3c3.23-0.95,5.25-1.42,6.04-1.42  c2.13,0,3.47,0.47,4.02,1.42c0.55,0.95,0.83,2.41,0.83,4.38v41.77c0,8.52,2.68,15.31,8.05,20.35c5.36,4.97,11.64,7.45,18.82,7.45  c3.47,0,7.89-1.5,13.25-4.5c5.44-3.08,9.66-7.49,12.66-13.25c3.08-5.76,4.62-12.27,4.62-19.53c0-8.6-2.64-16.25-7.93-22.96  c-5.21-6.71-11.28-10.06-18.22-10.06c-4.18,0-8.05,0.79-11.6,2.37c-3.47,1.5-5.76,2.25-6.86,2.25s-2.09-0.35-2.96-1.07  c-0.87-0.71-1.3-1.58-1.3-2.6c0-2.29,2.88-4.62,8.64-6.98c5.84-2.45,10.85-3.67,15.03-3.67c12.78,0,23.47,4.06,32.07,12.19  c8.68,8.13,13.02,19.17,13.02,33.14c0,10.81-4.46,20.75-13.37,29.82c-8.91,9.07-19.64,13.61-32.19,13.61  c-4.81,0-9.39-0.63-13.73-1.89c-4.26-1.26-9.86-4.18-16.8-8.76c-0.63,0-0.95,2.01-0.95,6.03c0,10.02-0.67,17.63-2.01,22.84  c-1.34,5.29-3.63,9.86-6.86,13.73c-3.23,3.87-6.43,6.59-9.59,8.17c-3.08,1.66-6.07,2.49-8.99,2.49c-4.34,0-6.51-1.03-6.51-3.08  c0-0.87,0.99-1.81,2.96-2.84c4.73-2.6,7.97-6,9.7-10.18C19.63,260.21,20.5,256.39,20.5,252.84z"/>
<path class="st0" d="M206.79,166.54c-7.29-8.45-18.26-12.67-32.91-12.67c-11.28,0-21.48,4.18-30.59,12.55  c-9.04,8.37-13.56,18.43-13.56,30.2c0,12.87,4.16,23.94,12.41,33.28c22.93,25.94,57.82,10.2,59.87,8.92c2.03-1.27,3.8-2.57,5.32-3.9  c1.07-0.85,1.87-1.62,2.29-2.23c0.67-0.74,1.27-1.49,1.79-2.25c2.06-2.82,3.29-5.68,3.69-8.57c0.59-4.3-0.13-6.59-2.16-6.87  c-0.86-0.12-1.69,0.93-3.22,2.54c-10.16,10.75-21.86,13.55-24.58,14.11c-0.38,0.08-0.76,0.14-1.14,0.17  c-1.78,0.16-3.51,0.21-5.17,0.21c-8.13,0-15.49-3.32-22.08-9.95c-6.52-6.71-9.78-14.25-9.78-22.62c0-11.45,3.08-20.29,9.25-26.53  c6.24-6.24,12.27-9.36,18.08-9.36c8.41,0,14.68,2.64,18.82,7.93c4.21,5.29,6.31,10.97,6.31,17.05c0,1.66-0.28,2.8-0.84,3.43  c-0.56,0.63-1.65,0.95-3.26,0.95h-33.54c-4.07,0-6.1,1.54-6.1,4.62c0,3.24,1.96,4.86,5.89,4.86h48.26c3.01,0,5.08-0.28,6.2-0.83  c1.12-0.63,1.68-2.21,1.68-4.74C217.72,185.09,214.08,174.99,206.79,166.54z"/>
<path class="st0" d="M562.22,318.57c8.01,0,14.3-2.75,18.88-8.24c4.58-5.49,6.87-11.66,6.87-18.5c0-5.06-1.25-9.68-3.74-13.87  c-2.47-4.19-5.71-7.14-9.72-8.86c-3.98-1.72-8.22-2.57-12.7-2.57c-7.3,0-13.38,2.54-18.23,7.62c-4.85,5.08-7.28,11.53-7.28,19.36  c0,4.1,1.08,8.15,3.23,12.15c2.15,4,5.18,7.15,9.1,9.44C552.56,317.42,557.09,318.57,562.22,318.57z M562.01,269.83  c4.3,0,7.88,0.95,10.74,2.85c2.88,1.9,4.94,4.23,6.18,7c1.24,2.79,1.85,6.5,1.85,11.12c0,7.99-1.67,14.09-5.01,18.3  c-3.34,4.23-7.86,6.35-13.56,6.35c-5.88,0-10.48-2.18-13.8-6.52c-3.32-4.33-4.98-9.46-4.98-15.41  C543.44,277.72,549.63,269.83,562.01,269.83z"/>
<path class="st0" d="M501.25,273.33c0-1.74-1.19-2.68-3.57-2.82c-1.65-0.09-2.47-0.63-2.47-1.61c0-1.03,0.94-1.54,2.82-1.54  c0.89,0,1.88,0.08,2.95,0.24c1.08,0.16,1.99,0.24,2.75,0.24c0.5,0,1.9-0.16,4.19-0.48c2.29-0.32,4.05-0.48,5.29-0.48  c4.71,0,8.54,1.21,11.46,3.64c2.95,2.43,4.43,5.57,4.43,9.44c0,2.47-0.73,4.52-2.2,6.14c-1.44,1.6-3.94,3.09-7.48,4.46  c-0.66,0.25-0.99,0.51-0.99,0.79c0,0.18,0.14,0.48,0.41,0.89c1.26,1.78,3.63,5.65,7.11,11.6c3.48,5.93,5.33,9.03,5.56,9.3  c0.23,0.25,0.84,0.55,1.82,0.89c0.98,0.32,1.6,0.65,1.85,1c0.27,0.32,0.41,0.69,0.41,1.1c0,0.53-0.34,0.97-1.03,1.34  c-0.69,0.39-1.24,0.58-1.65,0.58c-1.05,0-2.33-0.4-3.85-1.2c-1.51-0.82-2.51-1.52-2.99-2.09c-0.89-1.14-3.81-5.81-8.75-14.01  c-2.31-3.82-3.64-5.97-3.98-6.45c-1.24-1.79-2.45-2.93-3.64-3.43c-0.3-0.11-0.49-0.23-0.58-0.34c-0.09-0.14-0.14-0.41-0.14-0.82  c0-0.98,0.59-1.48,1.78-1.48c0.12,0,0.43,0.05,0.96,0.14c0.53,0.07,1.04,0.1,1.54,0.1c2.52,0,4.62-0.81,6.32-2.44  c1.69-1.62,2.54-3.89,2.54-6.8c0-2.06-0.95-4.11-2.85-6.14c-1.9-2.04-4.53-3.06-7.9-3.06c-1.26,0-2.18,0.15-2.78,0.45  c-0.57,0.27-0.94,0.63-1.1,1.06c-0.14,0.41-0.21,0.96-0.21,1.65v38.45c0,0.76,0.32,1.37,0.96,1.85c0.66,0.46,1.52,0.69,2.57,0.69  c1.14,0,1.91,0.15,2.3,0.45c0.39,0.3,0.58,0.73,0.58,1.3c0,0.55-0.25,1.01-0.76,1.37c-0.48,0.37-1.21,0.55-2.2,0.55  c-0.89,0-1.99-0.26-3.29-0.79c-1.28-0.5-2.3-0.76-3.05-0.76c-0.64,0-1.6,0.24-2.88,0.72c-1.28,0.5-2.29,0.76-3.02,0.76  c-2.11,0-3.16-0.66-3.16-1.99c0-0.5,0.17-0.87,0.52-1.1c0.34-0.25,1.2-0.38,2.57-0.38c0.82,0,1.5-0.18,2.03-0.55  c0.53-0.37,0.79-0.81,0.79-1.34V273.33z"/>
<path class="st0" d="M485.66,272.47c0-2.13-1.29-3.19-3.88-3.19c-1.3,0-1.96-0.54-1.96-1.61c0-1.03,0.83-1.55,2.51-1.55  c0.53,0,1.28,0.1,2.27,0.31c0.98,0.18,1.73,0.27,2.23,0.27c0.69,0,1.67-0.1,2.95-0.31c1.28-0.23,2.24-0.34,2.88-0.34  c0.48,0,0.93,0.14,1.34,0.41c0.43,0.27,0.65,0.61,0.65,1c0,0.66-0.18,1.1-0.55,1.3c-0.37,0.21-1.12,0.39-2.27,0.55  c-1.12,0.14-1.88,0.58-2.27,1.34c-0.37,0.73-0.55,1.57-0.55,2.51v27.98c0,3.45-0.39,6.08-1.17,7.86c-0.75,1.76-2,3.31-3.74,4.63  c-1.74,1.33-3.75,2.3-6.04,2.92c-2.29,0.64-4.78,0.96-7.48,0.96c-4.85,0-8.88-1.19-12.08-3.57c-3.18-2.38-4.77-5.64-4.77-9.78v-32.2  c0-0.66-0.18-1.21-0.55-1.65c-0.34-0.46-1.1-0.76-2.26-0.89c-1.17-0.14-1.89-0.33-2.16-0.58c-0.25-0.27-0.38-0.62-0.38-1.03  c0-0.46,0.21-0.82,0.62-1.1c0.41-0.3,0.88-0.45,1.41-0.45c0.66,0,1.61,0.12,2.85,0.34c1.24,0.21,2.16,0.31,2.78,0.31  c0.73,0,1.8-0.11,3.19-0.34c1.42-0.25,2.49-0.38,3.23-0.38c0.78,0,1.42,0.14,1.92,0.41c0.5,0.27,0.76,0.67,0.76,1.2  c0,0.43-0.13,0.8-0.38,1.1c-0.23,0.27-0.85,0.46-1.85,0.55c-1.01,0.07-1.79,0.3-2.33,0.69c-0.53,0.39-0.79,1.24-0.79,2.54v31.27  c0,3.09,1.09,5.54,3.26,7.35c2.17,1.81,4.95,2.71,8.34,2.71c2.13,0,4.22-0.34,6.28-1.03c2.06-0.71,3.82-1.76,5.29-3.16  c1.49-1.42,2.32-3.3,2.51-5.63c0.14-0.6,0.21-1.97,0.21-4.12V272.47z"/>
<path class="st0" d="M444.95,298.49c0.8,0,1.35,0.08,1.65,0.24c0.32,0.14,0.48,0.46,0.48,0.96s-0.29,1.04-0.86,1.61  c-0.55,0.55-0.82,1.33-0.82,2.33v2.82c0,0.76,0.22,1.35,0.65,1.79c0.46,0.43,0.69,0.82,0.69,1.17c0,0.94-1.01,2.13-3.02,3.57  c-1.99,1.44-4.51,2.68-7.55,3.71c-3.04,1.01-5.97,1.51-8.79,1.51c-7.14,0-13.29-2.36-18.43-7.07c-5.13-4.74-7.69-11.03-7.69-18.88  c0-4.58,1.04-8.83,3.12-12.77c2.11-3.94,5.02-7,8.75-9.2c3.73-2.22,7.92-3.33,12.56-3.33c4.51,0,8.69,0.82,12.53,2.47  c3.84,1.62,5.77,3.44,5.77,5.46v2.75c0,0.27,0.06,0.7,0.17,1.27c0.11,0.55,0.17,1.06,0.17,1.55c0,0.46-0.11,0.86-0.34,1.2  c-0.21,0.32-0.49,0.48-0.86,0.48c-0.39,0-0.76-0.15-1.1-0.45c-0.34-0.32-0.85-1.18-1.51-2.57c-1.26-2.61-2.58-4.5-3.95-5.66  c-2.4-2.04-5.74-3.06-10.02-3.06c-5.42,0-9.77,1.98-13.04,5.94c-3.25,3.96-4.88,9.15-4.88,15.58c0,7.32,1.76,12.98,5.29,16.96  c3.52,3.96,8.07,5.94,13.63,5.94c2.88,0,5.56-0.57,8.03-1.72c2.47-1.17,3.71-2.86,3.71-5.08v-4.63c0-1.12-1.05-1.68-3.16-1.68  c-0.37,0-0.94,0.02-1.72,0.07c-0.76,0.05-1.29,0.07-1.61,0.07c-0.87,0-1.55-0.17-2.02-0.51c-0.48-0.34-0.72-0.79-0.72-1.34  c0-0.98,0.66-1.48,1.99-1.48H444.95z"/>
<path class="st0" d="M392.63,270.41c1.17,0,2.05,0.31,2.64,0.93c0.62,0.62,0.93,1.41,0.93,2.37c0,0.87,0.19,1.56,0.58,2.06  c0.39,0.53,0.85,0.79,1.37,0.79c0.53,0,0.96-0.24,1.3-0.72c0.37-0.48,0.55-1.12,0.55-1.92s0.04-1.67,0.1-2.61  c0.07-0.92,0.1-1.55,0.1-1.89c0-0.94-0.14-1.55-0.41-1.82c-0.25-0.3-0.93-0.45-2.03-0.45h-27.77c-1.95,0-3.29,0.15-4.02,0.45  c-0.71,0.3-1.06,0.74-1.06,1.34c0,0.94,0.65,1.41,1.96,1.41c1.67,0,2.76,0.26,3.26,0.79c0.5,0.55,0.76,1.41,0.76,2.58v31.41  c0,3.39-0.06,5.63-0.17,6.73c-0.11,1.1-0.4,1.8-0.86,2.09c-0.46,0.32-1.37,0.48-2.75,0.48c-0.82,0-1.46,0.15-1.92,0.45  c-0.43,0.32-0.65,0.72-0.65,1.2c0,0.43,0.19,0.81,0.58,1.13c0.39,0.34,0.88,0.52,1.48,0.52h26.43c1.05,0,1.74-0.22,2.06-0.65  c0.32-0.44,0.55-1.08,0.69-1.92c0.16-0.85,0.24-2.24,0.24-4.19c0-0.89-0.38-1.34-1.13-1.34c-0.43,0-0.82,0.13-1.17,0.38  c-0.32,0.27-0.69,0.94-1.1,1.99c-0.39,1.08-0.8,1.76-1.24,2.06c-0.41,0.3-0.89,0.45-1.44,0.45h-9.41c-1.58,0-2.57-0.23-2.99-0.69  c-0.41-0.43-0.62-1.1-0.62-1.99v-7.24c0-1.69,0.23-2.82,0.69-3.36c0.46-0.53,1.39-0.79,2.78-0.79h9.13c0.76,0,1.33,0.3,1.72,0.89  c0.39,0.62,0.58,1.3,0.58,2.06c0,0.39,0.16,0.71,0.48,0.96c0.32,0.27,0.7,0.41,1.13,0.41c0.46,0,0.83-0.15,1.13-0.45  c0.3-0.3,0.45-0.72,0.45-1.27c0-0.48-0.08-1.18-0.24-2.09c-0.14-0.89-0.21-1.62-0.21-2.2c0-0.87,0.09-1.79,0.27-2.75  c0.21-0.96,0.31-1.54,0.31-1.75c0-0.53-0.17-0.96-0.52-1.3c-0.34-0.34-0.74-0.51-1.2-0.51c-0.48,0-0.88,0.21-1.2,0.62  c-0.32,0.43-0.48,1.02-0.48,1.75c0,0.87-0.23,1.49-0.69,1.85c-0.46,0.37-1.21,0.55-2.27,0.55h-9.06c-0.82,0-1.5-0.17-2.03-0.52  c-0.53-0.32-0.79-0.8-0.79-1.44v-21.94c0-1.14,0.29-1.91,0.86-2.3c0.6-0.39,1.6-0.58,3.02-0.58H392.63z"/>
<path class="st0" d="M356.56,308.45c0-1.14-0.39-2.31-1.17-3.5c-0.8-1.17-2.83-2.91-6.08-5.22c-6.25-4.42-10.4-7.99-12.46-10.71  c-2.06-2.7-3.09-5.58-3.09-8.65c0-4.35,1.68-7.73,5.05-10.16c3.36-2.4,7.05-3.6,11.05-3.6c2.84,0,5.76,0.58,8.75,1.75  c2.98,1.19,4.46,2.44,4.46,3.74c0,0.32-0.04,0.92-0.1,1.78c-0.07,0.89-0.1,2-0.1,3.33c0,0.46,0.05,1.01,0.14,1.65  c0.07,0.66,0.1,1.1,0.1,1.3c0,0.85-0.5,1.27-1.51,1.27c-1.12,0-1.75-0.85-1.89-2.54c-0.27-2.79-1.26-4.97-2.95-6.52  c-1.69-1.56-4.04-2.33-7.04-2.33c-3.02,0-5.52,0.85-7.48,2.54c-1.99,1.72-2.99,3.95-2.99,6.69c0,1.65,0.67,3.4,2.02,5.25  c1.33,1.85,4.83,4.8,10.51,8.82c2.33,1.65,4.18,3.04,5.53,4.19c1.33,1.17,2.45,2.54,3.36,4.12c0.89,1.58,1.34,3.38,1.34,5.39  c0,3.27-1.48,5.99-4.43,8.14c-2.98,2.15-6.4,3.23-10.26,3.23c-2.2,0-4.54-0.55-7.04-1.65c-2.52-1.07-3.78-2.35-3.78-3.81  c0-0.21,0.01-0.54,0.03-1c0.02-0.43,0.03-1.09,0.03-1.96c0-0.23-0.04-0.67-0.14-1.34c0-1.51,0.51-2.27,1.54-2.27  c0.37,0,0.73,0.17,1.1,0.52c0.34,0.37,0.51,0.76,0.51,1.17c0,2.24,0.77,3.96,2.3,5.15c1.51,1.21,3.36,1.82,5.56,1.82  c2.49,0,4.63-0.69,6.42-2.06C355.66,311.6,356.56,310.09,356.56,308.45z"/>
<path class="st0" d="M294.46,318.57c8.01,0,14.3-2.75,18.88-8.24c4.58-5.49,6.87-11.66,6.87-18.5c0-5.06-1.25-9.68-3.74-13.87  c-2.47-4.19-5.71-7.14-9.71-8.86c-3.98-1.72-8.22-2.57-12.7-2.57c-7.3,0-13.38,2.54-18.23,7.62c-4.85,5.08-7.28,11.53-7.28,19.36  c0,4.1,1.08,8.15,3.23,12.15c2.15,4,5.18,7.15,9.1,9.44C284.8,317.42,289.33,318.57,294.46,318.57z M294.25,269.83  c4.3,0,7.89,0.95,10.74,2.85c2.88,1.9,4.94,4.23,6.18,7c1.24,2.79,1.85,6.5,1.85,11.12c0,7.99-1.67,14.09-5.01,18.3  c-3.34,4.23-7.86,6.35-13.56,6.35c-5.88,0-10.48-2.18-13.8-6.52c-3.32-4.33-4.98-9.46-4.98-15.41  C275.68,277.72,281.87,269.83,294.25,269.83z"/>
<path class="st0" d="M258.07,311.02c0,0.94-0.33,1.68-0.99,2.23c-0.64,0.57-1.46,0.86-2.47,0.86c-0.78,0-1.41,0.14-1.89,0.41  c-0.48,0.27-0.72,0.63-0.72,1.06c0,0.53,0.22,0.94,0.65,1.24c0.46,0.32,0.95,0.48,1.48,0.48c0.27,0,1.2-0.15,2.78-0.45  c1.6-0.27,2.67-0.41,3.19-0.41c0.69,0,1.59,0.1,2.71,0.31c1.15,0.23,1.97,0.34,2.47,0.34c1.37,0,2.06-0.55,2.06-1.65  c0-0.89-0.69-1.34-2.06-1.34c-1.19,0-2.07-0.18-2.64-0.55c-0.55-0.37-0.89-0.81-1.03-1.34c-0.11-0.5-0.17-1.16-0.17-1.96v-34.26  c0-2.29,0.24-4.05,0.72-5.29c0.5-1.24,0.75-2.23,0.75-2.99c0-0.71-0.31-1.07-0.93-1.07c-0.43,0-0.77,0.09-0.99,0.27  c-0.23,0.18-0.57,0.58-1.03,1.2l-28.56,37.83c-0.3,0.39-0.57,0.58-0.82,0.58c-0.34,0-0.51-0.43-0.51-1.3V273.5  c0-0.96,0.4-1.73,1.2-2.3c0.82-0.57,1.6-0.86,2.33-0.86c1.83,0,2.75-0.6,2.75-1.79c0-0.37-0.1-0.66-0.31-0.89  c-0.21-0.23-0.69-0.34-1.44-0.34c-0.73,0-1.83,0.1-3.3,0.31c-1.46,0.21-2.41,0.31-2.85,0.31c-0.6,0-1.6-0.1-3.02-0.31  c-1.42-0.21-2.31-0.31-2.68-0.31c-1.17,0-1.75,0.54-1.75,1.61c0,0.89,0.69,1.34,2.06,1.34c1.12,0,2.01,0.31,2.68,0.93  c0.69,0.64,1.03,1.54,1.03,2.71v36.63c0,1.12-0.29,2.01-0.86,2.68c-0.57,0.66-1.29,1-2.16,1c-1.17,0-1.96,0.13-2.37,0.38  c-0.39,0.25-0.58,0.64-0.58,1.17c0,0.94,0.58,1.41,1.75,1.41c0.21,0,0.72-0.07,1.54-0.21c0.82-0.11,1.51-0.17,2.06-0.17  c0.41,0,0.89,0.06,1.44,0.17c0.57,0.14,1.05,0.21,1.44,0.21c0.66,0,1.48-0.54,2.44-1.61c0.98-1.08,4.31-5.41,9.99-13.01l15.14-20.25  c0.25-0.34,0.49-0.52,0.72-0.52c0.5,0,0.76,0.62,0.76,1.85V311.02z"/>
<path class="st0" d="M208.43,310.26c0,1.33-0.26,2.23-0.79,2.71c-0.5,0.5-1.17,0.87-1.99,1.1c-0.8,0.25-1.36,0.49-1.68,0.72  c-0.3,0.23-0.45,0.64-0.45,1.24c0,0.34,0.15,0.63,0.45,0.86c0.32,0.23,0.69,0.34,1.1,0.34c0.71,0,1.79-0.13,3.23-0.38  c1.44-0.23,2.54-0.34,3.3-0.34c0.69,0,1.69,0.1,3.02,0.31c1.35,0.23,2.36,0.34,3.02,0.34c1.15,0,1.72-0.47,1.72-1.41  c0-0.57-0.15-0.96-0.45-1.17c-0.3-0.21-0.9-0.4-1.82-0.58c-0.92-0.16-1.58-0.64-1.99-1.44c-0.41-0.78-0.62-1.92-0.62-3.43V273.5  c0-0.66,0.15-1.26,0.45-1.79c0.32-0.5,1.01-0.9,2.06-1.2c1.08-0.27,1.73-0.57,1.96-0.89c0.23-0.3,0.34-0.65,0.34-1.06  c0-0.82-0.71-1.24-2.13-1.24c-0.64,0-1.58,0.11-2.82,0.34c-1.24,0.23-2.17,0.34-2.82,0.34c-0.6,0-1.51-0.09-2.75-0.27  c-1.21-0.18-2.13-0.27-2.75-0.27c-1.72,0-2.57,0.54-2.57,1.61c0,0.3,0.09,0.56,0.27,0.79c0.18,0.23,0.82,0.43,1.92,0.62  c1.12,0.21,1.87,0.7,2.23,1.48c0.37,0.8,0.55,1.69,0.55,2.68V310.26z"/>
<path class="st0" d="M199.78,267.22c0.78,0,1.41,0.81,1.89,2.44c0.48,1.62,0.72,3.14,0.72,4.53s-0.45,2.09-1.34,2.09  c-0.32,0-0.62-0.1-0.89-0.31c-0.25-0.21-0.62-0.93-1.1-2.16c-0.46-1.26-1.16-2.1-2.09-2.54c-0.92-0.46-1.92-0.69-3.02-0.69  c-1.56,0-2.69,0.37-3.4,1.1c-0.69,0.71-1.03,1.88-1.03,3.5v36.46c0,0.55,0.16,1.04,0.48,1.48c0.34,0.41,1.04,0.78,2.09,1.1  c1.05,0.3,1.69,0.56,1.92,0.79c0.23,0.23,0.34,0.49,0.34,0.79c0,1.19-0.63,1.79-1.89,1.79c-0.69,0-1.69-0.11-3.02-0.34  c-1.33-0.21-2.31-0.31-2.95-0.31c-0.6,0-1.46,0.09-2.61,0.27c-1.15,0.18-2.01,0.27-2.61,0.27c-0.71,0-1.32-0.16-1.82-0.48  c-0.5-0.32-0.76-0.77-0.76-1.34c0-0.27,0.09-0.51,0.28-0.72c0.18-0.23,0.79-0.49,1.82-0.79c1.03-0.32,1.72-0.8,2.06-1.44  c0.37-0.64,0.55-1.36,0.55-2.16v-36.77c0-2.22-1.5-3.33-4.5-3.33c-1.95,0-3.33,0.43-4.15,1.3c-0.5,0.5-0.87,1.28-1.1,2.33  c-0.23,1.03-0.47,1.65-0.72,1.85c-0.23,0.18-0.51,0.27-0.86,0.27c-0.37,0-0.72-0.09-1.06-0.27c-0.32-0.21-0.48-0.46-0.48-0.76  c0-2.49,0.22-4.44,0.65-5.84c0.43-1.42,1.06-2.13,1.89-2.13H199.78z"/>
<path class="st0" d="M162.67,308.45c0-1.14-0.39-2.31-1.17-3.5c-0.8-1.17-2.83-2.91-6.08-5.22c-6.25-4.42-10.4-7.99-12.46-10.71  c-2.06-2.7-3.09-5.58-3.09-8.65c0-4.35,1.68-7.73,5.05-10.16c3.36-2.4,7.05-3.6,11.05-3.6c2.84,0,5.76,0.58,8.75,1.75  c2.97,1.19,4.46,2.44,4.46,3.74c0,0.32-0.03,0.92-0.1,1.78c-0.07,0.89-0.1,2-0.1,3.33c0,0.46,0.05,1.01,0.14,1.65  c0.07,0.66,0.1,1.1,0.1,1.3c0,0.85-0.5,1.27-1.51,1.27c-1.12,0-1.75-0.85-1.89-2.54c-0.28-2.79-1.26-4.97-2.95-6.52  c-1.69-1.56-4.04-2.33-7.04-2.33c-3.02,0-5.51,0.85-7.48,2.54c-1.99,1.72-2.99,3.95-2.99,6.69c0,1.65,0.68,3.4,2.03,5.25  c1.33,1.85,4.83,4.8,10.5,8.82c2.33,1.65,4.18,3.04,5.53,4.19c1.33,1.17,2.45,2.54,3.36,4.12c0.89,1.58,1.34,3.38,1.34,5.39  c0,3.27-1.48,5.99-4.43,8.14c-2.98,2.15-6.4,3.23-10.26,3.23c-2.2,0-4.54-0.55-7.04-1.65c-2.52-1.07-3.78-2.35-3.78-3.81  c0-0.21,0.01-0.54,0.03-1c0.02-0.43,0.03-1.09,0.03-1.96c0-0.23-0.05-0.67-0.14-1.34c0-1.51,0.52-2.27,1.55-2.27  c0.37,0,0.73,0.17,1.1,0.52c0.34,0.37,0.51,0.76,0.51,1.17c0,2.24,0.77,3.96,2.3,5.15c1.51,1.21,3.37,1.82,5.56,1.82  c2.49,0,4.63-0.69,6.42-2.06C161.78,311.6,162.67,310.09,162.67,308.45z"/>
<path class="st0" d="M130.64,270.41c1.17,0,2.05,0.31,2.64,0.93c0.62,0.62,0.93,1.41,0.93,2.37c0,0.87,0.19,1.56,0.58,2.06  c0.39,0.53,0.85,0.79,1.37,0.79c0.53,0,0.96-0.24,1.31-0.72c0.37-0.48,0.55-1.12,0.55-1.92s0.03-1.67,0.1-2.61  c0.07-0.92,0.1-1.55,0.1-1.89c0-0.94-0.14-1.55-0.41-1.82c-0.25-0.3-0.93-0.45-2.02-0.45h-27.77c-1.95,0-3.28,0.15-4.02,0.45  c-0.71,0.3-1.06,0.74-1.06,1.34c0,0.94,0.65,1.41,1.96,1.41c1.67,0,2.76,0.26,3.26,0.79c0.5,0.55,0.76,1.41,0.76,2.58v31.41  c0,3.39-0.06,5.63-0.17,6.73c-0.11,1.1-0.4,1.8-0.86,2.09c-0.46,0.32-1.37,0.48-2.75,0.48c-0.82,0-1.46,0.15-1.92,0.45  c-0.43,0.32-0.65,0.72-0.65,1.2c0,0.43,0.19,0.81,0.58,1.13c0.39,0.34,0.88,0.52,1.48,0.52h26.43c1.05,0,1.74-0.22,2.06-0.65  c0.32-0.44,0.55-1.08,0.69-1.92c0.16-0.85,0.24-2.24,0.24-4.19c0-0.89-0.38-1.34-1.13-1.34c-0.43,0-0.82,0.13-1.17,0.38  c-0.32,0.27-0.69,0.94-1.1,1.99c-0.39,1.08-0.8,1.76-1.24,2.06c-0.41,0.3-0.89,0.45-1.44,0.45h-9.41c-1.58,0-2.57-0.23-2.99-0.69  c-0.41-0.43-0.62-1.1-0.62-1.99v-7.24c0-1.69,0.23-2.82,0.69-3.36c0.46-0.53,1.39-0.79,2.78-0.79h9.13c0.75,0,1.33,0.3,1.72,0.89  c0.39,0.62,0.58,1.3,0.58,2.06c0,0.39,0.16,0.71,0.48,0.96c0.32,0.27,0.7,0.41,1.13,0.41c0.46,0,0.84-0.15,1.13-0.45  c0.3-0.3,0.45-0.72,0.45-1.27c0-0.48-0.08-1.18-0.24-2.09c-0.14-0.89-0.21-1.62-0.21-2.2c0-0.87,0.09-1.79,0.28-2.75  c0.21-0.96,0.31-1.54,0.31-1.75c0-0.53-0.17-0.96-0.51-1.3c-0.34-0.34-0.74-0.51-1.2-0.51c-0.48,0-0.88,0.21-1.2,0.62  c-0.32,0.43-0.48,1.02-0.48,1.75c0,0.87-0.23,1.49-0.69,1.85c-0.46,0.37-1.21,0.55-2.27,0.55h-9.06c-0.82,0-1.5-0.17-2.03-0.52  c-0.53-0.32-0.79-0.8-0.79-1.44v-21.94c0-1.14,0.29-1.91,0.86-2.3c0.6-0.39,1.6-0.58,3.02-0.58H130.64z"/>
<path class="st0" d="M75.65,317.51c3.43,0,7.29-0.99,11.57-2.99c4.3-1.97,7.78-4.92,10.44-8.86c2.65-3.94,3.98-8.52,3.98-13.77  c0-7.14-2.2-13.01-6.59-17.61c-4.39-4.6-10.09-6.9-17.1-6.9l-19.46,0.14c-0.53,0-0.97,0.14-1.34,0.41  c-0.37,0.25-0.55,0.61-0.55,1.06c0,0.39,0.13,0.71,0.38,0.96c0.25,0.25,0.94,0.44,2.06,0.55c1.12,0.14,1.83,0.38,2.13,0.72  c0.32,0.37,0.48,0.81,0.48,1.34v39.03c0,1.03-0.17,1.77-0.51,2.23c-0.32,0.46-0.68,0.72-1.06,0.79c-0.37,0.09-1.09,0.14-2.16,0.14  c-0.66,0-1.11,0.1-1.34,0.31c-0.23,0.23-0.34,0.57-0.34,1.03c0,0.94,0.76,1.41,2.27,1.41H75.65z M67.48,274.46  c0-1.33,0.61-2.35,1.82-3.05c1.21-0.71,3.44-1.06,6.69-1.06c3.52,0,6.19,0.46,8,1.37c3.07,1.58,5.55,4.09,7.45,7.52  c1.92,3.43,2.88,6.91,2.88,10.43c0,3.04-0.26,5.9-0.79,8.58c-0.5,2.7-1.43,5.13-2.78,7.28c-1.33,2.17-3.34,4.22-6.04,6.14  c-2.7,1.92-6.29,2.88-10.78,2.88c-4.3,0-6.45-0.94-6.45-2.82V274.46z"/>
<path class="st1" d="M508.35,168.99v72.71h-71.72v-72.71H508.35z M442.96,233.16v-2.81v-17.85v-2.81h2.81h14.9l20.18-32.02  l0.29,0.18v-0.37H499h2.81v2.81v17.85v2.81H499h-14.92l-20.16,32.08l-0.29-0.18v0.31h-17.85H442.96z M463.63,215.3v-0.27l0.23,0.15  l20.21-32.08h12.12v12.23h-15.04v0.37l-0.29-0.18l-20.12,32.02h-12.14V215.3H463.63z M492.55,190.55c0,0.63-0.52,1.15-1.15,1.15  h-2.67c-0.64,0-1.15-0.51-1.15-1.15v-2.67c0-0.63,0.52-1.15,1.15-1.15h2.67c0.63,0,1.15,0.51,1.15,1.15V190.55z M453.36,223.91  c-0.64,0-1.15-0.51-1.15-1.15v-2.67c0-0.63,0.51-1.15,1.15-1.15h2.67c0.64,0,1.15,0.51,1.15,1.15v2.67c0,0.64-0.51,1.15-1.15,1.15  H453.36z M501.74,228.56c0,2.5-2.03,4.54-4.54,4.54h-14.28c-2.51,0-4.54-2.03-4.54-4.54v-14.28c0-2.51,2.03-4.54,4.54-4.54h14.28  c2.51,0,4.54,2.03,4.54,4.54V228.56z M483.89,227.6h12.36v-12.36h-12.36V227.6z M491.4,223.91c0.63,0,1.15-0.51,1.15-1.15v-2.67  c0-0.63-0.52-1.15-1.15-1.15h-2.67c-0.64,0-1.15,0.51-1.15,1.15v2.67c0,0.64,0.52,1.15,1.15,1.15H491.4z M466.37,196.36  c0,2.51-2.03,4.54-4.53,4.54h-14.28c-2.51,0-4.54-2.03-4.54-4.54v-14.28c0-2.5,2.03-4.54,4.54-4.54h14.28c2.5,0,4.53,2.03,4.53,4.54  V196.36z M448.52,195.4h12.36v-12.36h-12.36V195.4z M456.04,191.7c0.63,0,1.15-0.51,1.15-1.15v-2.67c0-0.63-0.52-1.15-1.15-1.15  h-2.67c-0.64,0-1.15,0.51-1.15,1.15v2.67c0,0.63,0.52,1.15,1.15,1.15H456.04z"/>
<path class="st2" d="M587.61,241.2H514.9v-71.72h72.71V241.2z M523.44,175.81h2.81h17.85h2.81v2.81v14.9l32.02,20.18l-0.18,0.29  h0.37v17.85v2.81h-2.81h-17.85h-2.81v-2.81v-14.92l-32.08-20.16l0.18-0.29h-0.31v-17.85V175.81z M541.29,196.48h0.27l-0.15,0.23  l32.08,20.21v12.11h-12.23v-15.04h-0.37l0.18-0.29l-32.02-20.12v-12.14h12.23V196.48z M566.05,225.4c-0.64,0-1.15-0.51-1.15-1.15  v-2.67c0-0.63,0.51-1.15,1.15-1.15h2.67c0.64,0,1.15,0.51,1.15,1.15v2.67c0,0.64-0.52,1.15-1.15,1.15H566.05z M532.69,186.21  c0-0.63,0.51-1.15,1.15-1.15h2.67c0.64,0,1.15,0.51,1.15,1.15v2.67c0,0.63-0.52,1.15-1.15,1.15h-2.67c-0.64,0-1.15-0.51-1.15-1.15  V186.21z M528.04,234.59c-2.51,0-4.53-2.03-4.53-4.54v-14.28c0-2.51,2.03-4.54,4.53-4.54h14.28c2.51,0,4.54,2.03,4.54,4.54v14.28  c0,2.51-2.03,4.54-4.54,4.54H528.04z M529,216.74v12.36h12.36v-12.36H529z M532.69,224.25c0,0.64,0.51,1.15,1.15,1.15h2.67  c0.64,0,1.15-0.51,1.15-1.15v-2.67c0-0.63-0.52-1.15-1.15-1.15h-2.67c-0.64,0-1.15,0.51-1.15,1.15V224.25z M560.24,199.22  c-2.51,0-4.53-2.03-4.53-4.54v-14.28c0-2.5,2.03-4.54,4.53-4.54h14.28c2.51,0,4.54,2.03,4.54,4.54v14.28c0,2.51-2.03,4.54-4.54,4.54  H560.24z M561.2,181.37v12.36h12.36v-12.36H561.2z M564.9,188.89c0,0.63,0.51,1.15,1.15,1.15h2.67c0.64,0,1.15-0.51,1.15-1.15v-2.67  c0-0.63-0.52-1.15-1.15-1.15h-2.67c-0.64,0-1.15,0.51-1.15,1.15V188.89z"/>
</svg>